<svg version="1.1" xmlns="http://www.w3.org/2000/svg" style="display: block;" viewBox="0 0 2016 2048" width="1008" height="1024" preserveAspectRatio="none">
<defs>
	<linearGradient id="Gradient1" gradientUnits="userSpaceOnUse" x1="1103.05" y1="447.059" x2="920.907" y2="455.698">
		<stop class="stop0" offset="0" stop-opacity="1" stop-color="rgb(8,76,69)"/>
		<stop class="stop1" offset="1" stop-opacity="1" stop-color="rgb(30,127,116)"/>
	</linearGradient>
	<linearGradient id="Gradient2" gradientUnits="userSpaceOnUse" x1="1108.66" y1="988.181" x2="1088.88" y2="332.24">
		<stop class="stop0" offset="0" stop-opacity="1" stop-color="rgb(36,133,118)"/>
		<stop class="stop1" offset="1" stop-opacity="1" stop-color="rgb(72,170,144)"/>
	</linearGradient>
</defs>
<path transform="translate(0,0)" fill="rgb(255,255,255)" d="M 0 0 L 2016 0 L 2016 2048 L 0 2048 L 0 0 z"/>
<path transform="translate(0,0)" fill="rgb(255,255,255)" d="M 1646.41 554.139 L 1709.6 662.945 C 1719.68 680.277 1737.09 707.983 1745.56 725.047 C 1704.9 794.686 1660.18 871.531 1621.96 942.036 L 1767 942.104 C 1793.08 942.078 1823.37 941.485 1849.16 942.434 C 1865.24 971.019 1881.55 999.475 1898.08 1027.8 C 1882.4 1056.96 1864.25 1085.66 1849.26 1114.28 L 1719.95 1114.11 C 1699.38 1114.12 1669.45 1113.23 1649.54 1114.38 C 1673.24 1165.05 1686.52 1201.34 1687.32 1258.55 C 1682.11 1248.81 1669.62 1221.96 1656.96 1224.3 C 1653.03 1226.83 1650.73 1230.84 1650.15 1235.33 C 1645.92 1268.19 1655.15 1306.83 1655.17 1340.01 C 1677.18 1340.04 1699.7 1339.84 1721.66 1340.16 C 1698.62 1379.95 1675.84 1419.88 1653.32 1459.96 C 1646.47 1472.11 1631.01 1501.85 1624.35 1511.96 L 1551.95 1512.05 C 1535.92 1540.24 1518.61 1567.64 1492.67 1587.94 C 1495.63 1578.92 1506.46 1549.89 1496.39 1544.17 C 1477.11 1544.58 1452.88 1583.22 1441.57 1596.45 C 1446.25 1607.15 1454.54 1619.33 1460.18 1629.89 C 1474.99 1657.6 1495 1687.46 1509.17 1715.21 C 1492.26 1743.73 1476.14 1773.18 1459.35 1801.91 C 1426.65 1801.97 1393.41 1802.32 1360.76 1801.9 L 1307.69 1708.77 C 1299.99 1695.27 1288.69 1674.26 1280.16 1661.82 C 1246.59 1680.31 1219.72 1691.23 1180.67 1691 C 1189.52 1685.16 1212.52 1668.84 1203.31 1657.78 C 1192.67 1645.01 1162.6 1658.7 1151.06 1662.02 C 1115.6 1672.2 1081.93 1677.31 1045.28 1670.53 C 1112.9 1646.13 1045.24 1628.54 1009.19 1638.84 C 1038.18 1692.99 1070.99 1747.22 1100.74 1801.29 C 1079.74 1802.77 1052.01 1801.97 1030.55 1801.98 L 905.55 1802.02 C 895.328 1781.64 882.316 1760.91 870.721 1741.01 C 843.703 1694.63 818.051 1646.15 790.082 1600.49 C 785.509 1607.88 780.975 1615.87 776.734 1623.5 C 743.535 1683.21 708.125 1742.14 674.994 1801.83 L 576.291 1802.1 C 572.382 1793.42 564.066 1779.57 559.198 1770.95 C 548.78 1752.2 538.042 1733.63 526.987 1715.25 C 537.247 1695.57 550.592 1674.06 561.692 1654.84 L 628.561 1537.72 L 645.617 1507.81 C 660.775 1482.82 675.532 1457.59 689.884 1432.12 C 691.65 1429.21 690.925 1428.32 689.72 1425.71 C 688.02 1420.73 632.166 1320.13 629.682 1317.66 C 607.529 1303.85 567.973 1249.76 553.455 1226.15 C 553.996 1222.56 707.571 947.976 718.008 934.324 C 718.405 933.087 728.474 915.93 730.317 912.442 C 734.346 903.711 743.193 889.382 748.216 880.822 C 756.424 866.852 764.385 852.738 772.096 838.488 C 776.929 829.494 791 802.827 796.53 795.141 C 812.477 800.587 830.883 806.769 846.248 813.727 L 852.042 815.803 C 863.986 820.452 914.344 844.616 921.951 846.017 L 926.738 848.291 C 943.739 855.35 962.356 862.441 979.067 869.72 L 985.458 871.71 C 1009.17 881.115 1033.67 888.383 1058.67 893.428 L 1064.13 894.421 C 1083.89 898.854 1111.69 901.234 1132.07 901.036 L 1139.43 900.909 C 1171.93 898.884 1197.8 893.027 1227.1 878.2 L 1232.17 875.91 C 1243.04 891.759 1247.83 898.727 1262.63 911.717 C 1270.56 909.505 1285.23 898.994 1291.35 893.33 C 1296.22 902.045 1301.73 911.458 1306.22 920.294 C 1309.46 925.082 1310.87 927.841 1313.4 932.897 C 1325.96 954.097 1340.5 983.108 1352.67 1002.52 L 1358.59 1013 C 1363.72 1003.97 1369.04 995.044 1374.53 986.232 C 1387.81 979.748 1414.2 953.348 1424.66 941.812 C 1426.09 938.56 1429.37 933.634 1431.29 930.432 C 1452.13 895.198 1471.95 859.33 1492.2 823.742 C 1503.61 803.7 1519.7 779.804 1528.28 758.825 C 1537.19 747.067 1561.43 702.25 1568.92 688.742 C 1579.51 671.947 1590.75 653.139 1599.94 635.569 C 1614.05 608.602 1633.38 581.331 1646.41 554.139 z"/>
<path transform="translate(0,0)" fill="rgb(68,196,221)" d="M 1655.17 1340.01 C 1677.18 1340.04 1699.7 1339.84 1721.66 1340.16 C 1698.62 1379.95 1675.84 1419.88 1653.32 1459.96 C 1646.47 1472.11 1631.01 1501.85 1624.35 1511.96 L 1551.95 1512.05 C 1535.92 1540.24 1518.61 1567.64 1492.67 1587.94 C 1495.63 1578.92 1506.46 1549.89 1496.39 1544.17 C 1477.11 1544.58 1452.88 1583.22 1441.57 1596.45 C 1446.25 1607.15 1454.54 1619.33 1460.18 1629.89 C 1474.99 1657.6 1495 1687.46 1509.17 1715.21 C 1492.26 1743.73 1476.14 1773.18 1459.35 1801.91 C 1426.65 1801.97 1393.41 1802.32 1360.76 1801.9 L 1307.69 1708.77 C 1299.99 1695.27 1288.69 1674.26 1280.16 1661.82 C 1246.59 1680.31 1219.72 1691.23 1180.67 1691 C 1189.52 1685.16 1212.52 1668.84 1203.31 1657.78 C 1192.67 1645.01 1162.6 1658.7 1151.06 1662.02 C 1115.6 1672.2 1081.93 1677.31 1045.28 1670.53 C 1112.9 1646.13 1045.24 1628.54 1009.19 1638.84 C 1003.16 1625.91 994.088 1611.2 987.282 1597.7 C 979.734 1588.05 963.972 1558.72 956.957 1546.45 C 938.845 1515.14 920.928 1483.72 903.208 1452.19 C 911.983 1454.5 920.97 1456.96 929.774 1459.09 C 928.916 1452.81 870.749 1353.45 863.376 1340.78 C 886.878 1339.65 912.09 1340.08 935.718 1340.08 L 1049.53 1340.18 L 1404.52 1339.94 L 1449.37 1340.1 C 1462.84 1340.11 1478.2 1339.79 1491.52 1340.37 C 1495.65 1340.37 1499.96 1340.44 1504.06 1340.36 L 1516.42 1340.42 L 1526.94 1340.18 C 1551.11 1340.38 1575.28 1340.38 1599.44 1340.18 C 1617.67 1339.62 1636.34 1340.68 1655.17 1340.01 z"/>
<path transform="translate(0,0)" fill="rgb(21,109,99)" d="M 903.208 1452.19 C 911.983 1454.5 920.97 1456.96 929.774 1459.09 C 935.347 1463.09 957.115 1503.78 961.121 1512.03 L 1195.59 1511.93 L 1258.97 1624.16 C 1265.19 1635.39 1274.83 1651.02 1280.16 1661.82 C 1246.59 1680.31 1219.72 1691.23 1180.67 1691 C 1189.52 1685.16 1212.52 1668.84 1203.31 1657.78 C 1192.67 1645.01 1162.6 1658.7 1151.06 1662.02 C 1115.6 1672.2 1081.93 1677.31 1045.28 1670.53 C 1112.9 1646.13 1045.24 1628.54 1009.19 1638.84 C 1003.16 1625.91 994.088 1611.2 987.282 1597.7 C 979.734 1588.05 963.972 1558.72 956.957 1546.45 C 938.845 1515.14 920.928 1483.72 903.208 1452.19 z"/>
<path transform="translate(0,0)" fill="rgb(9,74,68)" d="M 987.282 1597.7 C 1072.51 1624.92 1170.15 1639.95 1258.97 1624.16 C 1265.19 1635.39 1274.83 1651.02 1280.16 1661.82 C 1246.59 1680.31 1219.72 1691.23 1180.67 1691 C 1189.52 1685.16 1212.52 1668.84 1203.31 1657.78 C 1192.67 1645.01 1162.6 1658.7 1151.06 1662.02 C 1115.6 1672.2 1081.93 1677.31 1045.28 1670.53 C 1112.9 1646.13 1045.24 1628.54 1009.19 1638.84 C 1003.16 1625.91 994.088 1611.2 987.282 1597.7 z"/>
<path transform="translate(0,0)" fill="rgb(72,167,143)" d="M 1081.48 1549.05 C 1089.1 1548.84 1094.31 1553.32 1101.14 1557.46 L 1077.88 1562.73 C 1067.39 1563.65 1065.86 1561.48 1057.2 1555.42 C 1065.36 1553.57 1073.46 1551.44 1081.48 1549.05 z"/>
<path transform="translate(0,0)" fill="rgb(72,167,143)" d="M 1100.17 1565.12 C 1108.06 1564.8 1113 1568.02 1120.19 1571.38 C 1113.33 1574.72 1107.96 1576.72 1100.77 1579.38 C 1090.29 1578.74 1087.93 1577.45 1078.86 1572.65 C 1086.94 1569.34 1091.82 1567.47 1100.17 1565.12 z"/>
<path transform="translate(0,0)" fill="rgb(72,167,143)" d="M 1125.64 1576.19 C 1131.69 1575.58 1138.97 1576.07 1145.13 1576.29 L 1126.18 1583.55 C 1121.98 1584.78 1117.13 1586.02 1113.02 1584.17 L 1113.16 1582.44 C 1116.55 1579.09 1121.06 1577.92 1125.64 1576.19 z"/>
<path transform="translate(0,0)" fill="rgb(9,74,68)" d="M 1483.19 1512 L 1551.95 1512.05 C 1535.92 1540.24 1518.61 1567.64 1492.67 1587.94 C 1495.63 1578.92 1506.46 1549.89 1496.39 1544.17 C 1477.11 1544.58 1452.88 1583.22 1441.57 1596.45 C 1435.87 1585.25 1428.6 1573.14 1422.35 1562.07 C 1425.62 1559.07 1439.87 1550.16 1444.42 1547.12 C 1456.9 1538.8 1473.79 1523.71 1483.19 1512 z"/>
<path transform="translate(0,0)" fill="rgb(21,109,99)" d="M 1394.54 1512.29 C 1424.09 1512.04 1453.64 1511.94 1483.19 1512 C 1473.79 1523.71 1456.9 1538.8 1444.42 1547.12 C 1439.87 1550.16 1425.62 1559.07 1422.35 1562.07 C 1415.4 1551.95 1401.03 1524.12 1394.54 1512.29 z"/>
<path transform="translate(0,0)" fill="rgb(7,79,167)" d="M 1646.41 554.139 L 1709.6 662.945 C 1719.68 680.277 1737.09 707.983 1745.56 725.047 C 1704.9 794.686 1660.18 871.531 1621.96 942.036 L 1767 942.104 C 1793.08 942.078 1823.37 941.485 1849.16 942.434 C 1865.24 971.019 1881.55 999.475 1898.08 1027.8 C 1882.4 1056.96 1864.25 1085.66 1849.26 1114.28 L 1719.95 1114.11 C 1699.38 1114.12 1669.45 1113.23 1649.54 1114.38 C 1673.24 1165.05 1686.52 1201.34 1687.32 1258.55 C 1682.11 1248.81 1669.62 1221.96 1656.96 1224.3 C 1653.03 1226.83 1650.73 1230.84 1650.15 1235.33 C 1645.92 1268.19 1655.15 1306.83 1655.17 1340.01 C 1636.34 1340.68 1617.67 1339.62 1599.44 1340.18 C 1575.28 1340.38 1551.11 1340.38 1526.94 1340.18 L 1516.42 1340.42 L 1504.06 1340.36 C 1499.96 1340.44 1495.65 1340.37 1491.52 1340.37 C 1478.2 1339.79 1462.84 1340.11 1449.37 1340.1 L 1404.52 1339.94 C 1423.32 1315.09 1437.05 1279.74 1447.41 1250.24 C 1441.68 1255.82 1411.86 1310.46 1406.41 1320.15 C 1341.06 1319.41 1274.83 1320.03 1209.39 1319.97 C 1219.33 1301.35 1230.13 1283.23 1240.47 1264.82 L 1310.97 1141.03 C 1318.56 1127.96 1358.75 1060.64 1361.16 1051.42 C 1369.99 1041.94 1417.79 956.702 1424.66 941.812 C 1426.09 938.56 1429.37 933.634 1431.29 930.432 C 1452.13 895.198 1471.95 859.33 1492.2 823.742 C 1503.61 803.7 1519.7 779.804 1528.28 758.825 C 1537.19 747.067 1561.43 702.25 1568.92 688.742 C 1579.51 671.947 1590.75 653.139 1599.94 635.569 C 1614.05 608.602 1633.38 581.331 1646.41 554.139 z"/>
<path transform="translate(0,0)" fill="rgb(21,109,99)" d="M 1524.66 1114.19 L 1621.93 1114.01 C 1628.2 1114.01 1644.04 1113.63 1649.54 1114.38 C 1673.24 1165.05 1686.52 1201.34 1687.32 1258.55 C 1682.11 1248.81 1669.62 1221.96 1656.96 1224.3 C 1653.03 1226.83 1650.73 1230.84 1650.15 1235.33 C 1645.92 1268.19 1655.15 1306.83 1655.17 1340.01 C 1636.34 1340.68 1617.67 1339.62 1599.44 1340.18 C 1575.28 1340.38 1551.11 1340.38 1526.94 1340.18 L 1516.42 1340.42 L 1504.06 1340.36 C 1499.96 1340.44 1495.65 1340.37 1491.52 1340.37 C 1478.2 1339.79 1462.84 1340.11 1449.37 1340.1 L 1404.52 1339.94 C 1423.32 1315.09 1437.05 1279.74 1447.41 1250.24 C 1450.12 1246.39 1456.46 1232.85 1459.36 1227.68 C 1471.2 1206.42 1483.33 1185.32 1495.76 1164.39 C 1505.58 1147.9 1514.08 1130.32 1524.66 1114.19 z"/>
<path transform="translate(0,0)" fill="rgb(9,74,68)" d="M 1621.93 1114.01 C 1628.2 1114.01 1644.04 1113.63 1649.54 1114.38 C 1673.24 1165.05 1686.52 1201.34 1687.32 1258.55 C 1682.11 1248.81 1669.62 1221.96 1656.96 1224.3 C 1653.03 1226.83 1650.73 1230.84 1650.15 1235.33 C 1645.92 1268.19 1655.15 1306.83 1655.17 1340.01 C 1636.34 1340.68 1617.67 1339.62 1599.44 1340.18 C 1599.87 1336.56 1604.3 1323.23 1605.61 1318.89 C 1609.11 1307.56 1612.03 1296.07 1614.37 1284.45 C 1625.06 1229.97 1625.85 1169.15 1621.93 1114.01 z"/>
<path transform="translate(0,0)" fill="rgb(9,74,68)" d="M 1495.76 1164.39 C 1497.44 1212.35 1485.97 1257.64 1467.97 1301.92 C 1464.37 1310.78 1451.51 1333.1 1449.37 1340.1 L 1404.52 1339.94 C 1423.32 1315.09 1437.05 1279.74 1447.41 1250.24 C 1450.12 1246.39 1456.46 1232.85 1459.36 1227.68 C 1471.2 1206.42 1483.33 1185.32 1495.76 1164.39 z"/>
<path transform="translate(0,0)" fill="rgb(72,167,143)" d="M 1516.42 1340.42 C 1518.36 1332.23 1519.93 1322.58 1524.46 1315.71 L 1526.18 1315.24 C 1529.35 1320.03 1527.82 1334.45 1526.94 1340.18 L 1516.42 1340.42 z"/>
<path transform="translate(0,0)" fill="rgb(72,167,143)" d="M 1491.52 1340.37 L 1503.82 1323.9 L 1504.06 1340.36 C 1499.96 1340.44 1495.65 1340.37 1491.52 1340.37 z"/>
<path transform="translate(0,0)" fill="rgb(72,167,143)" d="M 1568.48 1139.69 C 1573.15 1144.53 1586.98 1172.21 1589.76 1179.3 C 1586.75 1189.66 1581.9 1198.38 1577.02 1207.92 L 1575.17 1211.52 C 1574.1 1210.68 1576.75 1197.11 1576.06 1191.96 C 1574.29 1178.75 1567.87 1167.48 1562.11 1155.61 C 1564.09 1148.76 1565.42 1146.09 1568.48 1139.69 z"/>
<path transform="translate(0,0)" fill="rgb(72,167,143)" d="M 1540.55 1277.79 C 1544.29 1284.97 1536.63 1303.64 1532.71 1310.42 C 1531.22 1306.56 1531 1294.97 1530.78 1290.35 C 1534.47 1284.93 1536.04 1282.62 1540.55 1277.79 z"/>
<path transform="translate(0,0)" fill="rgb(72,167,143)" d="M 1596.22 1135.81 C 1603.17 1144.51 1603.13 1153.68 1600.1 1163.92 L 1592.95 1148.01 C 1593.77 1143.23 1594.77 1140.37 1596.22 1135.81 z"/>
<path transform="translate(0,0)" fill="rgb(72,167,143)" d="M 1527.57 1293.95 L 1528.35 1294.85 C 1527.9 1300.95 1523.47 1305.5 1519.63 1310.2 L 1518.64 1309.09 C 1519.4 1303.27 1523.88 1298.4 1527.57 1293.95 z"/>
<path transform="translate(0,0)" fill="rgb(17,44,75)" d="M 674.221 1052.41 C 692.079 1081.95 709.444 1113.79 726.707 1143.85 L 842.495 1345.99 L 882.178 1416 C 887.633 1425.66 897.145 1443.61 903.208 1452.19 C 920.928 1483.72 938.845 1515.14 956.957 1546.45 C 963.972 1558.72 979.734 1588.05 987.282 1597.7 C 994.088 1611.2 1003.16 1625.91 1009.19 1638.84 C 1038.18 1692.99 1070.99 1747.22 1100.74 1801.29 C 1079.74 1802.77 1052.01 1801.97 1030.55 1801.98 L 905.55 1802.02 C 895.328 1781.64 882.316 1760.91 870.721 1741.01 C 843.703 1694.63 818.051 1646.15 790.082 1600.49 C 785.509 1607.88 780.975 1615.87 776.734 1623.5 C 743.535 1683.21 708.125 1742.14 674.994 1801.83 L 576.291 1802.1 C 572.382 1793.42 564.066 1779.57 559.198 1770.95 C 548.78 1752.2 538.042 1733.63 526.987 1715.25 C 537.247 1695.57 550.592 1674.06 561.692 1654.84 L 628.561 1537.72 L 645.617 1507.81 C 660.775 1482.82 675.532 1457.59 689.884 1432.12 C 691.65 1429.21 690.925 1428.32 689.72 1425.71 C 688.02 1420.73 632.166 1320.13 629.682 1317.66 C 612.234 1285.94 593.022 1255.06 575.759 1223.78 C 583.427 1212.01 591.197 1197.14 598.266 1184.7 C 613.579 1158.32 628.726 1131.84 643.707 1105.27 C 652.516 1089.73 664.8 1066.88 674.221 1052.41 z"/>
<path transform="translate(0,0)" fill="rgb(39,133,117)" d="M 796.53 795.141 C 812.477 800.587 830.883 806.769 846.248 813.727 L 852.042 815.803 C 863.986 820.452 914.344 844.616 921.951 846.017 L 926.738 848.291 C 943.739 855.35 962.356 862.441 979.067 869.72 L 985.458 871.71 C 1009.17 881.115 1033.67 888.383 1058.67 893.428 L 1064.13 894.421 C 1083.89 898.854 1111.69 901.234 1132.07 901.036 L 1139.43 900.909 C 1171.93 898.884 1197.8 893.027 1227.1 878.2 L 1232.17 875.91 C 1243.04 891.759 1247.83 898.727 1262.63 911.717 C 1270.56 909.505 1285.23 898.994 1291.35 893.33 C 1296.22 902.045 1301.73 911.458 1306.22 920.294 C 1309.46 925.082 1310.87 927.841 1313.4 932.897 C 1325.96 954.097 1340.5 983.108 1352.67 1002.52 C 1244.38 1071.78 1113.42 1077.54 992.974 1039.21 C 898.951 1009.29 822.314 944.582 730.317 912.442 C 734.346 903.711 743.193 889.382 748.216 880.822 C 756.424 866.852 764.385 852.738 772.096 838.488 C 776.929 829.494 791 802.827 796.53 795.141 z"/>
<path transform="translate(0,0)" fill="rgb(72,167,143)" d="M 1232.17 875.91 C 1243.04 891.759 1247.83 898.727 1262.63 911.717 C 1261.55 914.22 1257.23 916.315 1254.63 917.903 C 1231.37 931.053 1177.68 950.75 1151.86 949.988 C 1143.48 933.289 1140.91 919.207 1139.43 900.909 C 1171.93 898.884 1197.8 893.027 1227.1 878.2 L 1232.17 875.91 z"/>
<path transform="translate(0,0)" fill="rgb(9,74,68)" d="M 1232.17 875.91 C 1243.04 891.759 1247.83 898.727 1262.63 911.717 C 1261.55 914.22 1257.23 916.315 1254.63 917.903 C 1244.18 908.125 1232.14 891.558 1227.1 878.2 L 1232.17 875.91 z"/>
<path transform="translate(0,0)" fill="rgb(72,167,143)" d="M 1058.67 893.428 L 1064.13 894.421 C 1083.89 898.854 1111.69 901.234 1132.07 901.036 L 1139.43 900.909 C 1140.91 919.207 1143.48 933.289 1151.86 949.988 C 1148.46 951.121 1144.02 952.074 1140.54 951.066 C 1135.67 953.569 1074.1 952.208 1068.55 948.272 L 1067.79 949.217 C 1063.56 950.491 1057.72 949.519 1055.59 945.286 C 1052.59 924.757 1053.05 913.345 1058.67 893.428 z"/>
<path transform="translate(0,0)" fill="rgb(9,74,68)" d="M 1058.67 893.428 L 1064.13 894.421 C 1063.6 913.811 1062.74 929.34 1068.55 948.272 L 1067.79 949.217 C 1063.56 950.491 1057.72 949.519 1055.59 945.286 C 1052.59 924.757 1053.05 913.345 1058.67 893.428 z"/>
<path transform="translate(0,0)" fill="rgb(9,74,68)" d="M 1132.07 901.036 L 1139.43 900.909 C 1140.91 919.207 1143.48 933.289 1151.86 949.988 C 1148.46 951.121 1144.02 952.074 1140.54 951.066 C 1133.25 932.471 1131.68 920.813 1132.07 901.036 z"/>
<path transform="translate(0,0)" fill="rgb(72,167,143)" d="M 985.458 871.71 C 1009.17 881.115 1033.67 888.383 1058.67 893.428 C 1053.05 913.345 1052.59 924.757 1055.59 945.286 C 1054.79 946.525 1054.69 947.006 1053.15 946.904 C 1038.83 945.949 979.887 929.724 971.117 923.966 L 970.517 919.405 C 973.75 898.904 976.49 890.331 985.458 871.71 z"/>
<path transform="translate(0,0)" fill="rgb(72,167,143)" d="M 852.042 815.803 C 863.986 820.452 914.344 844.616 921.951 846.017 C 914.305 856.475 913.646 886.757 913.168 899.877 C 890.95 888.954 867.611 878.954 844.814 867.812 C 844.887 862.46 844.915 857.108 844.897 851.756 C 845.305 838.834 848.292 828.043 852.042 815.803 z"/>
<path transform="translate(0,0)" fill="rgb(72,167,143)" d="M 921.951 846.017 L 926.738 848.291 C 943.739 855.35 962.356 862.441 979.067 869.72 L 985.458 871.71 C 976.49 890.331 973.75 898.904 970.517 919.405 C 970.062 921.861 970.357 921.042 969.044 923.3 L 966.169 923.395 C 963.321 921.81 962.524 921.533 960.239 919.087 C 955.368 919.408 927.012 907.963 924.456 903.219 C 920.446 903.891 917.536 901.723 913.168 899.877 C 913.646 886.757 914.305 856.475 921.951 846.017 z"/>
<path transform="translate(0,0)" fill="rgb(9,74,68)" d="M 921.951 846.017 L 926.738 848.291 C 923.556 870.353 922.486 880.574 924.456 903.219 C 920.446 903.891 917.536 901.723 913.168 899.877 C 913.646 886.757 914.305 856.475 921.951 846.017 z"/>
<path transform="translate(0,0)" fill="rgb(9,74,68)" d="M 979.067 869.72 L 985.458 871.71 C 976.49 890.331 973.75 898.904 970.517 919.405 C 970.062 921.861 970.357 921.042 969.044 923.3 L 966.169 923.395 C 963.321 921.81 962.524 921.533 960.239 919.087 C 964.075 903.553 970.472 883.154 979.067 869.72 z"/>
<path transform="translate(0,0)" fill="rgb(72,167,143)" d="M 796.53 795.141 C 812.477 800.587 830.883 806.769 846.248 813.727 L 852.042 815.803 C 848.292 828.043 845.305 838.834 844.897 851.756 C 843.861 857.83 843.903 860.791 843.88 866.822 L 833.543 862.086 C 822.29 855.171 785.704 843.199 772.096 838.488 C 776.929 829.494 791 802.827 796.53 795.141 z"/>
<path transform="translate(0,0)" fill="rgb(9,74,68)" d="M 846.248 813.727 L 852.042 815.803 C 848.292 828.043 845.305 838.834 844.897 851.756 C 843.861 857.83 843.903 860.791 843.88 866.822 L 833.543 862.086 C 835.367 845.486 840.032 829.198 846.248 813.727 z"/>
<path transform="translate(0,0)" fill="rgb(72,167,143)" d="M 1306.22 920.294 C 1309.46 925.082 1310.87 927.841 1313.4 932.897 C 1309.2 934.24 1299.37 935.995 1294.65 936.967 C 1298.11 929.454 1300.94 926.47 1306.22 920.294 z"/>
<path transform="translate(0,0)" fill="rgb(72,167,143)" d="M 1218.85 996.065 C 1241.76 995.583 1254.85 1002.29 1281.67 999.425 C 1263.58 1012.94 1257.58 1018.96 1232.78 1015.26 C 1229.11 1014.71 1225.82 1014.59 1223.55 1011.72 L 1225.35 1010.07 C 1223.88 1008.96 1224.06 1009.2 1222.3 1008.5 C 1215.72 1008.1 1207.81 1007.85 1201.47 1006.61 C 1206.99 1003.19 1213.22 999.138 1218.85 996.065 z"/>
<path transform="translate(0,0)" fill="rgb(39,133,117)" d="M 1222.3 1008.5 C 1227.36 1006.88 1235.31 1001.26 1238.82 1000.86 C 1235.04 1005.83 1231.04 1007.44 1225.35 1010.07 C 1223.88 1008.96 1224.06 1009.2 1222.3 1008.5 z"/>
<path transform="translate(0,0)" fill="rgb(21,109,99)" d="M 793.992 902.298 C 799.584 903.359 814.816 908.85 821.158 910.975 C 832.776 904.768 847.016 922.107 852.856 930.181 C 847.734 930.315 841.352 930.965 836.775 928.869 L 835.185 930.198 C 831.511 930.675 827.644 929.09 824.194 927.671 C 804.039 919.38 802.774 921.456 793.992 902.298 z"/>
<path transform="translate(0,0)" fill="rgb(72,167,143)" d="M 821.158 910.975 C 832.776 904.768 847.016 922.107 852.856 930.181 C 847.734 930.315 841.352 930.965 836.775 928.869 C 830.944 922.356 828.243 917.179 821.158 910.975 z"/>
<path transform="translate(0,0)" fill="rgb(72,167,143)" d="M 1172.3 1015.92 C 1179.16 1017.16 1182.16 1017.49 1187.38 1021.96 C 1193.11 1023.02 1203.05 1022.4 1209.26 1022.23 C 1198.56 1029.33 1188.09 1035.56 1176.29 1040.69 C 1166.81 1037.24 1156.28 1033.64 1147.02 1029.83 C 1151.62 1028.91 1157.43 1027.91 1161.87 1026.7 L 1160.16 1024.45 C 1161.89 1021.24 1168.75 1017.94 1172.3 1015.92 z"/>
<path transform="translate(0,0)" fill="rgb(21,109,99)" d="M 1172.3 1015.92 C 1179.16 1017.16 1182.16 1017.49 1187.38 1021.96 C 1177.27 1022.71 1171.69 1024.5 1161.87 1026.7 L 1160.16 1024.45 C 1161.89 1021.24 1168.75 1017.94 1172.3 1015.92 z"/>
<path transform="translate(0,0)" fill="rgb(72,167,143)" d="M 978.295 958.605 C 991.838 961.314 1003.02 961.585 1008.43 975.942 C 990.595 979.103 986.583 973.45 978.295 958.605 z"/>
<path transform="translate(0,0)" fill="rgb(72,167,143)" d="M 945.319 961.621 C 953.784 961.853 958.905 962.558 967.004 964.622 C 971.969 969.407 973.761 971.59 977.958 977.06 C 959.747 977.191 956.076 976.073 945.319 961.621 z"/>
<path transform="translate(0,0)" fill="rgb(72,167,143)" d="M 820.678 886.496 C 836.498 888.544 843.692 887.746 854.161 900.191 C 846.117 900.269 838.517 899.302 830.639 897.826 C 825.895 894.093 823.676 891.636 820.678 886.496 z"/>
<path transform="translate(0,0)" fill="rgb(72,167,143)" d="M 845.897 907.857 C 860.807 908.038 861.153 910.364 868.254 922.844 C 852.445 923.525 851.921 922.34 845.897 907.857 z"/>
<path transform="translate(0,0)" fill="rgb(9,74,68)" d="M 730.317 912.442 C 822.314 944.582 898.951 1009.29 992.974 1039.21 C 1113.42 1077.54 1244.38 1071.78 1352.67 1002.52 L 1358.59 1013 C 1363.72 1003.97 1369.04 995.044 1374.53 986.232 C 1387.81 979.748 1414.2 953.348 1424.66 941.812 C 1417.79 956.702 1369.99 1041.94 1361.16 1051.42 C 1348.79 1057.77 1334.99 1065.13 1322.34 1070.6 C 1239.27 1106.5 1141.7 1108.02 1054.89 1085.43 C 1030.94 1079.2 1005.14 1069.03 982.17 1059.77 C 983.706 1073.87 989.801 1086.14 994.979 1099.47 C 941.687 1079.81 909.409 1052.7 867.724 1014.84 C 862.163 1009.44 849.251 999.468 841.399 1000.29 C 828.908 1001.59 841.777 1034.02 844.137 1041.27 C 829.404 1030.25 815.935 1017.64 803.977 1003.66 C 771.921 965.624 767.755 953.057 718.008 934.324 C 718.405 933.087 728.474 915.93 730.317 912.442 z"/>
<path transform="translate(0,0)" fill="url(#Gradient2)" d="M 1059.44 256.151 C 1077.13 247.272 1100.09 220.666 1113.45 204.748 C 1120.25 196.646 1129.51 178.954 1138.41 172.03 C 1140.25 170.596 1142.12 171.386 1143.91 171.952 C 1155.72 184.68 1114.71 242.713 1104.19 255.799 C 1112.86 256.098 1121.53 256.195 1130.21 256.091 C 1135.08 264.337 1153.07 296.132 1157.88 301.917 C 1195.76 290.315 1218.62 286.227 1258.93 288.329 C 1250 293.154 1214.6 307.404 1219.51 320.018 C 1231.93 331.461 1283.8 325.941 1302.68 326.209 C 1309.21 326.128 1314.32 326.13 1320.84 326.549 C 1335.03 303.806 1348.1 279.464 1361.63 256.189 C 1394.29 255.89 1426.94 255.797 1459.6 255.911 C 1475.67 284.49 1493.77 314.738 1508.98 343.447 C 1494.52 368.775 1478.71 398.075 1463.6 422.743 C 1483.92 435.891 1498 445.435 1516.04 462.097 C 1509.49 460.69 1465.31 450.528 1465.12 465.779 C 1465 475.103 1477.25 491.498 1484.61 496.766 C 1519.31 525.441 1554.48 563.112 1573.25 604.342 C 1565.13 597.522 1535.72 571.565 1526.41 582.737 C 1523.82 593.682 1541.76 626.154 1547.28 637.449 C 1555.48 654.112 1562.71 671.239 1568.92 688.742 C 1561.43 702.25 1537.19 747.067 1528.28 758.825 C 1519.7 779.804 1503.61 803.7 1492.2 823.742 C 1471.95 859.33 1452.13 895.198 1431.29 930.432 C 1429.37 933.634 1426.09 938.56 1424.66 941.812 C 1414.2 953.348 1387.81 979.748 1374.53 986.232 C 1369.04 995.044 1363.72 1003.97 1358.59 1013 L 1352.67 1002.52 C 1340.5 983.108 1325.96 954.097 1313.4 932.897 C 1310.87 927.841 1309.46 925.082 1306.22 920.294 C 1301.73 911.458 1296.22 902.045 1291.35 893.33 C 1285.23 898.994 1270.56 909.505 1262.63 911.717 C 1247.83 898.727 1243.04 891.759 1232.17 875.91 C 1246.39 868.218 1254.36 861.495 1266.5 851.276 C 1264.23 842.058 1230.54 786.599 1223.38 773.923 L 1069.68 503.427 C 1052.34 509.289 1035.31 514.215 1017.4 518.15 C 1011.93 519.352 996.178 522.858 993.451 527.589 C 993.57 533.347 998.897 538.823 1003.1 542.331 C 1014.23 541.032 1055.66 542.005 1068.66 542.013 C 1073.18 549.665 1077.61 557.5 1081.89 565.289 C 1109.65 615.697 1138.96 665.34 1166.38 715.918 L 313.956 715.869 C 323.645 700.193 335.937 676.235 345.481 659.271 C 367.645 620.425 389.581 581.448 411.287 542.344 C 437.278 541.562 465.314 542.02 491.45 542.028 L 639.024 541.851 C 615.048 497.29 587.669 452.505 562.653 408.382 C 549.974 386.018 538.174 364.768 524.865 342.678 C 540.66 313.499 556.944 284.588 573.712 255.958 C 606.069 255.238 640.559 255.946 673.202 255.854 C 699.613 305.866 732.87 356.268 759.443 405.804 C 766.852 400.042 780.551 386.909 787.177 383.249 C 798.792 376.835 822.355 371.976 833.135 363.818 C 842.417 364.289 887.438 343.935 900.654 339.686 C 913.344 338.357 927.973 335.744 940.333 335.461 C 945.691 332.101 959.898 314.164 964.558 308.511 C 959.187 300.938 953.79 289.756 948.335 281.244 C 956.825 273.584 965.865 264.037 973.952 255.769 C 1002.53 256.61 1031.06 255.41 1059.44 256.151 z"/>
<path transform="translate(0,0)" fill="rgb(17,44,75)" d="M 573.712 255.958 C 606.069 255.238 640.559 255.946 673.202 255.854 C 699.613 305.866 732.87 356.268 759.443 405.804 C 758.933 408.51 757.033 409.486 755.115 411.645 C 743.369 424.867 743.344 434.13 745.799 449.903 C 728.776 464.833 711.101 478.833 691.502 490.259 C 685.257 494.857 674.291 496.968 671.702 504.737 C 668.059 515.669 663.883 528.719 669.444 539.792 C 675.804 552.454 687.788 566.653 701.267 571.645 C 702.958 572.267 704.657 572.869 706.363 573.449 C 703.718 566.915 699.897 560.515 702.183 554.128 C 705.397 550.453 707.537 550.569 712.171 550.275 C 716.168 550.026 720.17 549.876 724.174 549.825 C 736.875 559.321 737.246 560.003 751.566 564.905 C 747.544 556.799 745.577 553.789 743.888 544.942 C 769.171 536.703 787.511 527.335 814.319 524.519 C 813.13 537.125 796.047 552.611 787.102 560.406 C 778.863 567.586 769.457 571.52 761.376 577.357 L 758.056 577.006 C 754.9 577.133 752.183 576.926 749.301 577.908 C 744.37 581.915 740.228 589.083 737.079 590.12 C 738.357 592.894 738.094 593.598 738.086 596.652 C 739.196 605.748 742.429 611.609 750.702 616.34 C 764.74 624.367 785.632 623.39 800.198 616.96 C 808.637 613.234 815.864 601.585 823.178 595.934 C 841.751 581.849 897.962 549.273 918.788 544.008 C 935.944 545.046 989.474 546.332 1003.1 542.331 C 1014.23 541.032 1055.66 542.005 1068.66 542.013 C 1073.18 549.665 1077.61 557.5 1081.89 565.289 C 1109.65 615.697 1138.96 665.34 1166.38 715.918 L 313.956 715.869 C 323.645 700.193 335.937 676.235 345.481 659.271 C 367.645 620.425 389.581 581.448 411.287 542.344 C 437.278 541.562 465.314 542.02 491.45 542.028 L 639.024 541.851 C 615.048 497.29 587.669 452.505 562.653 408.382 C 549.974 386.018 538.174 364.768 524.865 342.678 C 540.66 313.499 556.944 284.588 573.712 255.958 z"/>
<path transform="translate(0,0)" fill="rgb(39,133,117)" d="M 749.301 577.908 C 744.37 581.915 740.228 589.083 737.079 590.12 C 697.32 604.366 709.217 631.224 680.525 654.129 C 668.436 663.779 651.563 660.181 638.515 664.062 C 623.843 668.427 608.688 675.61 594.081 681.109 C 602.078 673.624 608.981 667.654 617.909 661.302 C 603.64 655.56 595.031 651.935 581.922 643.469 C 602.746 647.277 630.755 655.759 651.019 652.994 C 687.59 648.005 685.053 621.825 702.015 598.496 C 713.252 583.042 731.615 579.93 749.301 577.908 z"/>
<path transform="translate(0,0)" fill="rgb(68,196,221)" d="M 1078.1 449.876 C 1089.45 450.331 1128.34 446.327 1137.68 449.533 C 1137.94 461.453 1138.05 473.376 1137.99 485.299 L 1144.44 486.554 C 1169.51 491.567 1193.13 497.189 1216.75 507.464 L 1222.19 509.666 C 1241.58 520.233 1255.15 527.984 1272.34 541.892 L 1276.47 545.187 C 1295.45 563.497 1307.35 577.755 1321.29 600.397 L 1323.49 603.743 C 1330.67 618.535 1340.16 633.962 1348.18 648.473 C 1349.9 651.578 1357.56 665.508 1359.27 667.818 L 1362.93 674.112 C 1372.01 673.837 1398.67 669.055 1405.71 664.259 C 1409.25 681.868 1415.19 736.753 1407.57 751.856 C 1420.9 776.319 1442.66 815.028 1458.24 837.47 C 1432.01 886.908 1400.64 936.158 1374.53 986.232 C 1369.04 995.044 1363.72 1003.97 1358.59 1013 L 1352.67 1002.52 C 1340.5 983.108 1325.96 954.097 1313.4 932.897 C 1310.87 927.841 1309.46 925.082 1306.22 920.294 C 1301.73 911.458 1296.22 902.045 1291.35 893.33 C 1285.23 898.994 1270.56 909.505 1262.63 911.717 C 1247.83 898.727 1243.04 891.759 1232.17 875.91 C 1246.39 868.218 1254.36 861.495 1266.5 851.276 C 1264.23 842.058 1230.54 786.599 1223.38 773.923 L 1069.68 503.427 L 1079.76 497.451 C 1073.57 494.447 1065.75 492.345 1059.05 489.843 C 1059.51 488.564 1059.59 487.342 1059.8 485.96 C 1058.3 482.677 1059.49 483.756 1056.22 482.509 L 1044.85 483.623 C 1049.35 474.559 1069.3 456.24 1078.1 449.876 z"/>
<path transform="translate(0,0)" fill="rgb(21,109,99)" d="M 1078.1 449.876 C 1089.45 450.331 1128.34 446.327 1137.68 449.533 C 1137.94 461.453 1138.05 473.376 1137.99 485.299 C 1117.74 482.555 1075.82 479.391 1056.22 482.509 L 1044.85 483.623 C 1049.35 474.559 1069.3 456.24 1078.1 449.876 z"/>
<path transform="translate(0,0)" fill="rgb(21,109,99)" d="M 1405.71 664.259 C 1409.25 681.868 1415.19 736.753 1407.57 751.856 C 1392.21 725.939 1377.89 700.217 1362.93 674.112 C 1372.01 673.837 1398.67 669.055 1405.71 664.259 z"/>
<path transform="translate(0,0)" fill="rgb(72,167,143)" d="M 1266.5 851.276 C 1275.17 865.066 1282.72 879.714 1291.35 893.33 C 1285.23 898.994 1270.56 909.505 1262.63 911.717 C 1247.83 898.727 1243.04 891.759 1232.17 875.91 C 1246.39 868.218 1254.36 861.495 1266.5 851.276 z"/>
<path transform="translate(0,0)" fill="rgb(9,74,68)" d="M 1059.44 256.151 C 1077.13 247.272 1100.09 220.666 1113.45 204.748 C 1120.25 196.646 1129.51 178.954 1138.41 172.03 C 1140.25 170.596 1142.12 171.386 1143.91 171.952 C 1155.72 184.68 1114.71 242.713 1104.19 255.799 C 1112.86 256.098 1121.53 256.195 1130.21 256.091 C 1135.08 264.337 1153.07 296.132 1157.88 301.917 C 1195.76 290.315 1218.62 286.227 1258.93 288.329 C 1250 293.154 1214.6 307.404 1219.51 320.018 C 1231.93 331.461 1283.8 325.941 1302.68 326.209 C 1309.21 326.128 1314.32 326.13 1320.84 326.549 C 1335.03 303.806 1348.1 279.464 1361.63 256.189 C 1394.29 255.89 1426.94 255.797 1459.6 255.911 C 1475.67 284.49 1493.77 314.738 1508.98 343.447 C 1494.52 368.775 1478.71 398.075 1463.6 422.743 C 1483.92 435.891 1498 445.435 1516.04 462.097 C 1509.49 460.69 1465.31 450.528 1465.12 465.779 C 1465 475.103 1477.25 491.498 1484.61 496.766 C 1519.31 525.441 1554.48 563.112 1573.25 604.342 C 1565.13 597.522 1535.72 571.565 1526.41 582.737 C 1523.82 593.682 1541.76 626.154 1547.28 637.449 C 1555.48 654.112 1562.71 671.239 1568.92 688.742 C 1561.43 702.25 1537.19 747.067 1528.28 758.825 C 1532.37 725.927 1527.89 675.345 1520.64 643.193 C 1501.98 559.748 1456.14 492.154 1392.96 436.214 C 1275.43 332.15 1131.13 321.486 982.834 354.618 C 979.132 358.59 976.162 363.527 971.594 366.718 C 960.68 374.34 945.48 374.234 932.646 376.902 C 924.871 378.519 907.334 383.67 901.073 378.922 L 900.832 376.14 C 904.634 367.59 930.573 346.233 939.641 336.234 L 940.333 335.461 C 945.691 332.101 959.898 314.164 964.558 308.511 C 959.187 300.938 953.79 289.756 948.335 281.244 C 956.825 273.584 965.865 264.037 973.952 255.769 C 1002.53 256.61 1031.06 255.41 1059.44 256.151 z"/>
<path transform="translate(0,0)" fill="rgb(68,196,221)" d="M 1361.63 256.189 C 1394.29 255.89 1426.94 255.797 1459.6 255.911 C 1475.67 284.49 1493.77 314.738 1508.98 343.447 C 1494.52 368.775 1478.71 398.075 1463.6 422.743 C 1447.78 413.52 1430.66 404.885 1413.3 398.639 C 1397.76 393.343 1380.67 390.532 1366.07 382.949 C 1359.7 380.28 1352.22 368.854 1358.31 362.729 C 1368.21 352.772 1393.74 352.845 1406.98 351.63 C 1361.33 329.385 1351.67 329.368 1302.68 326.209 C 1309.21 326.128 1314.32 326.13 1320.84 326.549 C 1335.03 303.806 1348.1 279.464 1361.63 256.189 z"/>
<path transform="translate(0,0)" fill="rgb(68,196,221)" d="M 1104.19 255.799 C 1112.86 256.098 1121.53 256.195 1130.21 256.091 C 1135.08 264.337 1153.07 296.132 1157.88 301.917 C 1142.49 306.271 1109.63 322.048 1096.84 316.335 C 1090.77 308.769 1102.37 298.369 1107.44 292.629 C 1069.28 299.012 1039.31 317.407 1003.25 330.65 C 1026.79 306.805 1050.35 299.608 1077.25 281.255 C 1084.57 276.26 1098 262.39 1104.19 255.799 z"/>
<path transform="translate(0,0)" fill="rgb(68,196,221)" d="M 948.335 281.244 C 956.825 273.584 965.865 264.037 973.952 255.769 C 1002.53 256.61 1031.06 255.41 1059.44 256.151 C 1048.76 263.102 1019.79 282.396 1008.39 282.437 C 1002.84 278.967 1007.21 264.566 1000.85 257.786 C 994.263 255.407 988.308 267.409 985.996 272.395 C 979.77 285.826 973.343 296.548 964.558 308.511 C 959.187 300.938 953.79 289.756 948.335 281.244 z"/>
<path transform="translate(0,0)" fill="url(#Gradient1)" d="M 985.503 383.528 C 991.761 381.735 997.994 379.84 1004.21 377.898 C 1032.95 368.912 1062.69 363.768 1091.77 356.048 C 1071.24 379.023 1053.65 397.744 1031.79 419.758 C 1056.49 421.161 1081.19 421.824 1105.96 423.257 C 1097.52 431.885 1087.03 441.725 1078.1 449.876 C 1069.3 456.24 1049.35 474.559 1044.85 483.623 L 1056.22 482.509 C 1059.49 483.756 1058.3 482.677 1059.8 485.96 C 1059.59 487.342 1059.51 488.564 1059.05 489.843 C 1065.75 492.345 1073.57 494.447 1079.76 497.451 L 1069.68 503.427 C 1052.34 509.289 1035.31 514.215 1017.4 518.15 C 1011.93 519.352 996.178 522.858 993.451 527.589 C 993.57 533.347 998.897 538.823 1003.1 542.331 C 989.474 546.332 935.944 545.046 918.788 544.008 C 923.97 540.622 955.346 531.7 963.819 528.843 C 977.121 524.358 985.954 513.451 993.093 511.149 C 1009.15 505.972 1030.03 502.102 1047.05 497.185 C 1037.59 492.245 1023.56 486.765 1012.9 481.532 C 1034.63 466.787 1053.01 454.524 1071.17 435.238 C 1044.95 434.325 1019.66 438.202 993.618 434.346 C 1001.49 421.985 1037.81 386.726 1049.57 375.897 L 985.503 383.528 z"/>
<path transform="translate(0,0)" fill="rgb(255,255,255)" d="M 1056.22 482.509 C 1059.49 483.756 1058.3 482.677 1059.8 485.96 C 1059.59 487.342 1059.51 488.564 1059.05 489.843 C 1053.82 487.714 1049.31 486.229 1043.96 484.48 L 1044.85 483.623 L 1056.22 482.509 z"/>
<path transform="translate(0,0)" fill="rgb(21,109,99)" d="M 1323.49 603.743 C 1331.77 601.212 1356.97 583.329 1365.07 577.819 C 1383.3 602.693 1395.74 627.015 1403.81 657.045 L 1405.71 664.259 C 1398.67 669.055 1372.01 673.837 1362.93 674.112 L 1359.27 667.818 C 1357.56 665.508 1349.9 651.578 1348.18 648.473 C 1340.16 633.962 1330.67 618.535 1323.49 603.743 z"/>
<path transform="translate(0,0)" fill="rgb(9,74,68)" d="M 1359.27 667.818 C 1362.56 666.112 1397.45 658.557 1403.81 657.045 L 1405.71 664.259 C 1398.67 669.055 1372.01 673.837 1362.93 674.112 L 1359.27 667.818 z"/>
<path transform="translate(0,0)" fill="rgb(21,109,99)" d="M 1299.13 509.665 L 1305.76 514.878 C 1326.48 531.04 1344.87 549.975 1360.43 571.152 C 1361.58 572.76 1364.22 576.269 1365.07 577.819 C 1356.97 583.329 1331.77 601.212 1323.49 603.743 L 1321.29 600.397 C 1307.35 577.755 1295.45 563.497 1276.47 545.187 L 1272.34 541.892 C 1278.62 532.382 1289.5 524.952 1299.13 509.665 z"/>
<path transform="translate(0,0)" fill="rgb(9,74,68)" d="M 1321.29 600.397 C 1325.71 592.901 1351.41 573.993 1360.43 571.152 C 1361.58 572.76 1364.22 576.269 1365.07 577.819 C 1356.97 583.329 1331.77 601.212 1323.49 603.743 L 1321.29 600.397 z"/>
<path transform="translate(0,0)" fill="rgb(9,74,68)" d="M 1299.13 509.665 L 1305.76 514.878 C 1299.73 523.806 1286.17 540.421 1276.47 545.187 L 1272.34 541.892 C 1278.62 532.382 1289.5 524.952 1299.13 509.665 z"/>
<path transform="translate(0,0)" fill="rgb(9,74,68)" d="M 814.319 524.519 C 831.832 521.646 846.561 521.751 862.903 514.505 C 887.475 503.61 890.627 475.984 921.268 480.581 C 926.859 481.42 931.962 482.273 936.8 485.252 L 937.974 487.033 C 933.26 490.752 910.259 487.412 902.857 494.509 C 894.427 502.592 888.545 516.687 879.459 523.517 C 864.718 534.599 847.702 542.938 831.824 552.898 C 816.274 562.652 800.373 577.96 786.348 587.09 C 777.09 585.089 770.13 580.945 761.376 577.357 C 769.457 571.52 778.863 567.586 787.102 560.406 C 796.047 552.611 813.13 537.125 814.319 524.519 z"/>
<path transform="translate(0,0)" fill="rgb(21,109,99)" d="M 1137.68 449.533 L 1145.26 450.158 C 1164.2 452.398 1178.7 455.114 1197.08 460.427 C 1200.83 461.511 1223.78 468.825 1225.91 469.165 L 1233.49 472.233 C 1232.13 480.32 1227.57 503.912 1222.19 509.666 L 1216.75 507.464 C 1193.13 497.189 1169.51 491.567 1144.44 486.554 L 1137.99 485.299 C 1138.05 473.376 1137.94 461.453 1137.68 449.533 z"/>
<path transform="translate(0,0)" fill="rgb(9,74,68)" d="M 1225.91 469.165 L 1233.49 472.233 C 1232.13 480.32 1227.57 503.912 1222.19 509.666 L 1216.75 507.464 C 1217.33 503.794 1224.93 472.357 1225.91 469.165 z"/>
<path transform="translate(0,0)" fill="rgb(9,74,68)" d="M 1137.68 449.533 L 1145.26 450.158 C 1148.11 456.205 1145.99 479.441 1144.44 486.554 L 1137.99 485.299 C 1138.05 473.376 1137.94 461.453 1137.68 449.533 z"/>
<path transform="translate(0,0)" fill="rgb(21,109,99)" d="M 1233.49 472.233 C 1261.48 484.308 1274.23 491.156 1299.13 509.665 C 1289.5 524.952 1278.62 532.382 1272.34 541.892 C 1255.15 527.984 1241.58 520.233 1222.19 509.666 C 1227.57 503.912 1232.13 480.32 1233.49 472.233 z"/>
<path transform="translate(0,0)" fill="rgb(9,74,68)" d="M 749.301 577.908 C 752.183 576.926 754.9 577.133 758.056 577.006 L 756.39 578.604 C 757.426 583.765 764.649 591.988 768.184 596.355 C 760.07 598.153 751.037 600.655 744.599 595.387 C 743.263 594.293 741.116 593.208 739.498 592.621 C 738.937 594.086 738.474 595.131 738.086 596.652 C 738.094 593.598 738.357 592.894 737.079 590.12 C 740.228 589.083 744.37 581.915 749.301 577.908 z"/>
<path transform="translate(0,0)" fill="rgb(9,74,68)" d="M 884.505 414.314 C 886.746 413.82 886.644 413.905 888.933 414.295 L 888.606 415.904 C 883.412 421.835 875.858 426.44 869.761 432.605 C 858.27 444.225 856.539 464.835 840.42 470.284 C 828.635 474.269 816.015 468.258 805.758 463.401 C 800.928 464.86 797.301 466.354 792.678 468.245 L 779.902 473.804 C 829.859 421.251 809.509 427.116 884.505 414.314 z"/>
<path transform="translate(0,0)" fill="rgb(72,167,143)" d="M 1398.38 497.532 C 1401.9 500.465 1405.47 503.336 1409.09 506.142 C 1414.64 506.753 1422.63 512.969 1425.84 517.127 C 1433.8 527.438 1436.54 545.206 1439.37 558.072 C 1431.73 553.114 1412.59 542.29 1410.5 533.773 C 1408.16 523.989 1401.95 506.611 1398.38 497.532 z"/>
<path transform="translate(0,0)" fill="rgb(21,109,99)" d="M 1409.09 506.142 C 1414.64 506.753 1422.63 512.969 1425.84 517.127 C 1433.8 527.438 1436.54 545.206 1439.37 558.072 C 1431.73 553.114 1412.59 542.29 1410.5 533.773 C 1416.76 537.268 1421.81 542.025 1429.88 546.358 C 1425.28 523.075 1423.06 524.776 1409.09 506.142 z"/>
<path transform="translate(0,0)" fill="rgb(21,109,99)" d="M 1180.32 367.552 C 1198.52 368.811 1228.1 385.488 1242.06 396.847 L 1241.3 396.862 C 1232.32 396.968 1218.93 396.75 1211.71 390.44 L 1212.82 388.111 L 1212.86 386.852 C 1209.09 384.714 1202.02 384.36 1197.42 383.789 C 1189.2 388.648 1170.41 395.822 1161.85 390.643 C 1165.68 384.809 1182.82 382.295 1189.97 380.801 C 1186.73 376.551 1183.47 371.901 1180.32 367.552 z"/>
<path transform="translate(0,0)" fill="rgb(21,109,99)" d="M 1494.53 738.656 C 1499.5 743.25 1498.83 758.911 1497.19 765.006 C 1493.5 778.727 1475.82 806.512 1464.4 813.169 C 1463.96 811.347 1465.82 806.489 1466.48 804.258 C 1468.65 796.612 1469.25 780.612 1474.72 775.575 L 1476.98 775.766 C 1480.63 779.381 1481.3 784.409 1482.78 789.562 C 1484.53 779.649 1491.13 746.232 1494.53 738.656 z"/>
<path transform="translate(0,0)" fill="rgb(72,167,143)" d="M 1361.94 508.526 C 1369.1 511.155 1392.92 525.129 1398.6 531.008 C 1399.89 535.947 1400.85 545.273 1401.55 550.633 C 1400.19 550.059 1400.46 550.293 1399.43 549.47 C 1391.08 542.777 1382.86 538.351 1373.3 533.637 C 1368.98 525.953 1365.39 516.724 1361.94 508.526 z"/>
<path transform="translate(0,0)" fill="rgb(21,109,99)" d="M 1148.86 393.104 C 1159.21 392.387 1184.44 403.879 1178.62 412.851 C 1175.23 413.695 1173.56 412.853 1170.19 411.901 C 1158.32 404.833 1147.66 401.96 1134.37 399.038 C 1138.82 396.869 1144.2 394.93 1148.86 393.104 z"/>
<path transform="translate(0,0)" fill="rgb(21,109,99)" d="M 1473.11 722.644 C 1484.15 745.992 1483.75 747.189 1467.75 767.434 L 1465.31 769.905 L 1464.53 768.786 C 1464 755.129 1469.34 735.967 1473.11 722.644 z"/>
<path transform="translate(0,0)" fill="rgb(72,167,143)" d="M 1285.89 402.771 C 1294.45 404.431 1306.23 407.743 1315.72 409.728 C 1321.32 415.23 1322.85 417.289 1327.08 423.736 C 1318.55 422.289 1312.77 421.906 1304.08 421.407 C 1296.8 415.295 1292.16 409.824 1285.89 402.771 z"/>
<path transform="translate(0,0)" fill="rgb(72,167,143)" d="M 1311.46 429.077 C 1328.79 436.918 1337.34 433.943 1349.29 447.101 C 1332.87 446.021 1315.02 449.256 1311.46 429.077 z"/>
<path transform="translate(0,0)" fill="rgb(21,109,99)" d="M 1198.74 398.378 C 1210.4 396.446 1213.43 400.535 1223.3 407.589 C 1217.37 407.816 1213.07 408.234 1207.22 408.921 L 1196.7 410.3 C 1192.71 408.056 1186.36 403.25 1182.4 400.407 C 1187.7 399.876 1193.42 399.051 1198.74 398.378 z"/>
<path transform="translate(0,0)" fill="rgb(21,109,99)" d="M 1334.66 450.731 C 1344.59 454.172 1348.77 455.659 1359.23 456.163 L 1366.16 465.247 C 1357.39 466.063 1353.55 465.959 1344.95 463.451 C 1339.92 458.811 1337.98 456.642 1334.66 450.731 z"/>
<path transform="translate(0,0)" fill="rgb(9,74,68)" d="M 710.262 508.798 C 714.374 508.695 714.736 508.55 717.336 510.531 L 717.53 512.24 C 715.127 518.164 707.845 521.045 702.334 523.596 C 700.793 524.611 701.115 524.343 699.283 524.887 L 698.922 523.227 C 701.765 516.432 704.57 513.312 710.262 508.798 z"/>
<path transform="translate(0,0)" fill="rgb(32,146,220)" d="M 630.241 738.049 C 695.638 738.015 763.545 737.009 828.729 738.109 C 820.569 752.032 802.32 781.679 796.53 795.141 C 791 802.827 776.929 829.494 772.096 838.488 C 764.385 852.738 756.424 866.852 748.216 880.822 C 743.193 889.382 734.346 903.711 730.317 912.442 C 728.474 915.93 718.405 933.087 718.008 934.324 C 707.571 947.976 553.996 1222.56 553.455 1226.15 C 546.342 1237.56 539.601 1250.76 532.652 1261.62 C 514.241 1290.15 498.834 1323.87 480.363 1352.41 C 477.871 1355.73 471.993 1366.7 469.759 1370.65 L 448.292 1408.67 C 435.265 1431.74 412.399 1469.35 401.461 1491.9 C 393.458 1475.88 381.834 1457.35 372.659 1441.76 L 337.149 1380.39 C 325.771 1361.03 312.149 1338.78 301.968 1319.03 C 309.664 1307.52 320.178 1287.67 327.464 1274.99 C 344.395 1245.88 360.859 1216.51 376.85 1186.88 C 369.745 1158.2 360.458 1125.61 338.911 1171.07 C 333.317 1152.63 332.364 1135.99 333.446 1116.8 C 333.077 1115.96 332.661 1114.65 331.509 1114.62 C 284.7 1113.42 235.144 1114.03 188.517 1114.12 C 173.153 1086.2 155.56 1057.08 139.558 1029.28 C 156.374 1000.47 172.93 971.507 189.225 942.399 C 239.89 942.05 299.2 943.989 348.948 941.881 C 359.048 924.255 367.124 912.427 380.66 897.252 C 392.114 884.41 405.714 874.188 414.138 859.447 C 410.662 849.971 382.807 855.474 374.88 857.073 C 401.926 826.424 435.209 807.252 475.295 800.958 C 481.671 799.957 488.825 798.872 493.859 794.657 C 498.63 783.913 472.225 774.18 464.754 770.804 C 508.428 755.101 531.783 761.14 575.205 770.121 C 581.571 771.227 593.175 772.272 598.513 768.553 C 606.867 762.73 588.353 746.53 583.992 741.987 C 600.25 743.984 608.368 745.515 623.832 750.198 C 625.914 746.373 628.469 741.958 630.241 738.049 z"/>
<path transform="translate(0,0)" fill="rgb(39,133,117)" d="M 583.992 741.987 C 600.25 743.984 608.368 745.515 623.832 750.198 C 617.913 760.731 607.83 779.721 600.816 789.127 C 583.591 822.145 563.716 855.925 545.315 888.515 C 538.13 901.24 522.25 931.098 514.536 941.951 L 480.933 941.877 L 472.794 941.916 C 443.412 941.886 405.027 942.782 376.524 941.771 L 348.948 941.881 C 359.048 924.255 367.124 912.427 380.66 897.252 C 392.114 884.41 405.714 874.188 414.138 859.447 C 410.662 849.971 382.807 855.474 374.88 857.073 C 401.926 826.424 435.209 807.252 475.295 800.958 C 481.671 799.957 488.825 798.872 493.859 794.657 C 498.63 783.913 472.225 774.18 464.754 770.804 C 508.428 755.101 531.783 761.14 575.205 770.121 C 581.571 771.227 593.175 772.272 598.513 768.553 C 606.867 762.73 588.353 746.53 583.992 741.987 z"/>
<path transform="translate(0,0)" fill="rgb(9,74,68)" d="M 583.992 741.987 C 600.25 743.984 608.368 745.515 623.832 750.198 C 617.913 760.731 607.83 779.721 600.816 789.127 C 502.776 811.936 445.785 849.493 400.045 941.122 C 392.947 941.282 383.415 941.209 376.524 941.771 L 348.948 941.881 C 359.048 924.255 367.124 912.427 380.66 897.252 C 392.114 884.41 405.714 874.188 414.138 859.447 C 410.662 849.971 382.807 855.474 374.88 857.073 C 401.926 826.424 435.209 807.252 475.295 800.958 C 481.671 799.957 488.825 798.872 493.859 794.657 C 498.63 783.913 472.225 774.18 464.754 770.804 C 508.428 755.101 531.783 761.14 575.205 770.121 C 581.571 771.227 593.175 772.272 598.513 768.553 C 606.867 762.73 588.353 746.53 583.992 741.987 z"/>
<path transform="translate(0,0)" fill="rgb(72,167,143)" d="M 473.478 929.37 C 477.23 923.917 479.441 922.183 484.34 917.751 C 484.319 923.421 485.516 938.745 480.933 941.877 L 472.794 941.916 L 473.478 929.37 z"/>
<path transform="translate(0,0)" fill="rgb(72,167,143)" d="M 493.13 888.027 C 493.006 897.599 481.386 908.798 472.604 912.139 L 472.432 910.822 C 476.999 899.182 483.156 894.824 493.13 888.027 z"/>
<path transform="translate(0,0)" fill="rgb(72,167,143)" d="M 508.782 885.92 L 509.468 886.694 C 509.614 889.201 507.556 894.81 506.397 897.106 C 502.093 905.635 500.98 907.4 492.572 910.67 L 491.744 909.527 C 492.394 903.117 503.7 890.345 508.782 885.92 z"/>
<path transform="translate(0,0)" fill="rgb(9,74,68)" d="M 334.21 1114.5 C 345.939 1115.64 364.767 1114.96 377.002 1114.77 C 379.207 1128.33 382.891 1154.38 388.775 1166.09 C 384.741 1173.71 381.425 1179.6 376.85 1186.88 C 369.745 1158.2 360.458 1125.61 338.911 1171.07 C 333.317 1152.63 332.364 1135.99 333.446 1116.8 L 334.21 1114.5 z"/>
<path transform="translate(0,0)" fill="rgb(21,109,99)" d="M 334.21 1114.5 C 342.446 1113.49 356.827 1113.87 365.596 1113.9 L 419.449 1114.23 C 408.529 1130.87 398.288 1152.16 388.775 1166.09 C 382.891 1154.38 379.207 1128.33 377.002 1114.77 C 364.767 1114.96 345.939 1115.64 334.21 1114.5 z"/>
<path transform="translate(0,0)" fill="rgb(21,109,99)" d="M 622.241 1441.54 C 639.427 1437.53 672.607 1431.01 689.884 1432.12 C 675.532 1457.59 660.775 1482.82 645.617 1507.81 L 628.561 1537.72 C 576.181 1541.63 521.083 1567.23 486.264 1607 C 452.466 1645.61 441.135 1685.31 429.142 1733.54 C 424.904 1724.06 422.76 1718.04 420.163 1707.87 C 399.948 1595.68 482.544 1486.42 586.927 1452.95 C 597.651 1449.51 610.178 1446.23 620.5 1442.23 L 622.241 1441.54 z"/>
<path transform="translate(0,0)" fill="rgb(9,74,68)" d="M 420.163 1707.87 C 426.211 1697.21 424.945 1699.29 427.779 1686.29 C 452.048 1574.93 536.221 1517.33 645.617 1507.81 L 628.561 1537.72 C 576.181 1541.63 521.083 1567.23 486.264 1607 C 452.466 1645.61 441.135 1685.31 429.142 1733.54 C 424.904 1724.06 422.76 1718.04 420.163 1707.87 z"/>
<path transform="translate(0,0)" fill="rgb(21,109,99)" d="M 553.455 1226.15 C 567.973 1249.76 607.529 1303.85 629.682 1317.66 C 632.166 1320.13 688.02 1420.73 689.72 1425.71 C 690.925 1428.32 691.65 1429.21 689.884 1432.12 C 672.607 1431.01 639.427 1437.53 622.241 1441.54 C 568.08 1422.33 522.758 1390.15 480.363 1352.41 C 498.834 1323.87 514.241 1290.15 532.652 1261.62 C 539.601 1250.76 546.342 1237.56 553.455 1226.15 z"/>
<path transform="translate(0,0)" fill="rgb(9,74,68)" d="M 553.455 1226.15 C 567.973 1249.76 607.529 1303.85 629.682 1317.66 C 632.166 1320.13 688.02 1420.73 689.72 1425.71 C 677.708 1416.5 664.664 1408.3 652.594 1399.02 C 617.85 1372.29 585.203 1340.06 559.459 1304.55 C 549.451 1290.75 541.731 1275.92 532.652 1261.62 C 539.601 1250.76 546.342 1237.56 553.455 1226.15 z"/>
<path transform="translate(0,0)" fill="rgb(72,167,143)" d="M 524.306 1282.74 C 530.316 1288.68 539.903 1310.19 534.744 1317.21 C 519.134 1304.73 518.03 1301.77 524.306 1282.74 z"/>
<path transform="translate(0,0)" fill="rgb(9,74,68)" d="M 833.135 363.818 C 849.929 341.577 865.122 321.458 879.563 297.301 C 887.629 283.808 889.027 260.688 899.886 254.076 C 906.649 254.555 903.423 264.077 909.954 271.36 C 918.222 274.782 924.955 267.161 931.724 262.578 C 951.259 249.349 966.084 232.566 978.759 212.796 C 983.034 206.128 993.319 184.206 1000.94 183.137 C 1014.74 193.286 980.713 246.47 973.952 255.769 C 965.865 264.037 956.825 273.584 948.335 281.244 C 953.79 289.756 959.187 300.938 964.558 308.511 C 959.898 314.164 945.691 332.101 940.333 335.461 C 927.973 335.744 913.344 338.357 900.654 339.686 C 887.438 343.935 842.417 364.289 833.135 363.818 z"/>
<path transform="translate(0,0)" fill="rgb(255,255,255)" d="M 948.335 281.244 C 953.79 289.756 959.187 300.938 964.558 308.511 C 959.898 314.164 945.691 332.101 940.333 335.461 C 927.973 335.744 913.344 338.357 900.654 339.686 C 910.046 309.526 923.893 298.844 948.335 281.244 z"/>
</svg>